<?xml version="1.0" encoding="UTF-8"?>
<svg id="_レイヤー_2" data-name="レイヤー 2" xmlns="http://www.w3.org/2000/svg" viewBox="0 0 2000 2000">
  <path d="M1286.8583079,267.438774l-32.1011699,90.3588466c-.2333136.6567347.1334435,1.3731508.8016014,1.5713951,250.9677198,74.4627931,424.2969674,237.7529333,518.8378009,491.1866114.1749814.469069.6193246.783974,1.1199126.7914455l119.9495146,1.7902918c.8326774.012428,1.4347224-.7994817,1.1838805-1.5935752-96.0800716-304.1618827-293.439965-504.6737357-608.3357392-584.8803135-.6115518-.1557673-1.2445381.1806329-1.4558008.7752984Z" fill="#3a5b19"/>
  <path d="M1766.8819093,1422.876052l117.9546492-.0000002c.9042613,0,1.4962445.9552354,1.0963021,1.7662438-312.4121712,633.5134821-1177.1469402,552.4541305-1399.7264725.6895748-.5651042-1.4008676,1.4118306-2.3786386,2.1835642-1.0801009,300.5123693,505.6494088,998.1604642,519.2334557,1277.4227091-.7351493.2115423-.3938784.6221568-.6405682,1.0692478-.6405682Z" fill="#3a5b19"/>
  <path d="M211.427943,543.8238526c47.7550159,55.2394911,82.1206695,123.2139013,105.2005629,201.9222306.3783169,1.2901572-1.300513,2.1523343-2.1298489,1.0941135-40.8780192-52.1597717-245.8862826-4.6796913-206.1141562-391.1005662.1223793-1.1890211,1.7158952-1.5165547,2.281869-.4637387,67.5254476,125.60983,285.2438442,54.7839764,226.3046623,429.5334549-.2217226,1.4097655-2.272989,1.3639684-2.4217995-.0553466-7.59461-72.4353327-30.1131143-196.8976664-121.6489997-242.8184147-1.1845021-.5942284-2.3389672.8857587-1.4722899,1.8882672Z" fill="#3a5b19"/>
  <path d="M382.0669657,700.3222728C432.8583063,79.6112121,1095.6902256,283.6569067,1278.9146822.5666635c.6606085-1.0206707,2.2478068-.5752636,2.2524326.6405287,1.3724569,360.7192126-293.025542,923.4001107-825.4543637,795.4841561-.4879005-.117218-1.0015922.0767117-1.2886283.4882908C-3.5527093,1453.8696127,1085.9471936,2413.2065845,1813.2940675,1598.0494076c1.0154927-1.1380899,2.7730961.2447497,1.9104745,1.5026679-760.7005902,1109.2919183-2476.0617677-347.629859-990.8879764-1208.9192573,1.3193711-.7651363.3241368-2.767401-1.0821888-2.1771284-190.3397676,79.8907125-264.6102117,122.321724-439.040637,312.7892235-.784215.8563155-2.2214718.2346415-2.1267741-.9226406Z" fill="#3a5b19"/>
  <path d="M550.8169473,1160.7355287c-5.4969631,0-8.2412794-2.5788957-8.2412794-7.7378771,0-.9580115.1422141-5.7813914.4260474-14.4737098.2844283-8.6911283.6616825-20.0611188,1.1371181-34.1040209.4706752-14.0440922.8526898-29.6138625,1.136523-46.7164512.2844283-17.0966383.4266424-34.3420362.4266424-51.7302433,0-18.7222828-.1910073-33.2459758-.5688565-43.5627486-.3814195-10.3179629-1.2341093-17.6714453-2.5574743-22.0675877-.5682615-1.1472337-.2838332-2.101675.8526898-2.8668942.5682615-.9532512,1.7047845-1.2400597,3.4101641-.8592352,2.6508953.5724268,6.1098525,1.7196605,10.3727064,3.4381309,4.2628539,1.7208506,8.7119547,3.5833202,13.3568231,5.588599,4.6401081,2.0064689,8.7607478,3.8701286,12.3619192,5.588599h17.9041052c.5682615-3.4381309,1.0877299-7.6379107,1.5631654-12.6100501.4706752-4.964999.9455157-10.0751873,1.4203562-15.332945.4706752-5.2529975.8038966-9.8871552.9949039-13.900093v-8.0234954c0-1.7208506.2844283-2.6741018.8526898-2.8657041.5682615-.3808245,1.5143723-.5736169,2.8419026-.5736169,3.596411.3855848,8.6185337,1.1460436,15.0616076,2.2920872,6.4389087,1.1472337,12.9748085,2.3420705,19.6088897,3.5821301,6.6299159,1.24482,11.7448645,2.3420705,15.3460359,3.2965118,2.459888.9580115,3.6945923,2.5800858,3.6945923,4.872173,0,1.338836-.4260474,2.4848796-1.2787371,3.439321-.8526898.9580115-2.0380059,1.432852-3.5523782,1.432852-2.4646483.1927924-4.5472821.5736169-6.2520666,1.1472337-1.7053796.5724268-3.4101641,1.7184704-5.1155436,3.4381309-4.7376944,4.778157-10.1864594,9.8431223-16.3409398,15.1901358-6.1586456,5.3517738-11.9846649,10.2239468-17.4774628,14.6153289h74.4571333c1.8916265,0,3.3125778-.7604589,4.2628539-2.2920872.9455157-1.5268681,2.0338407-3.2965118,3.2679499-5.3017906,1.229944-2.0064689,2.3182689-3.9629546,3.2679499-5.8754074.9461108-1.5268681,2.2736411-2.2920872,3.9790206-2.2920872.3772542,0,1.136523.1927924,2.2736411.5724268,2.6508953.9580115,5.9676384,2.2932773,9.946064,4.0117477,3.9790206,1.7208506,7.9086531,3.5392874,11.7936577,5.4457899,3.8814344,1.9124529,6.9625423,3.5380973,9.2361834,4.872173,2.6508953,1.5316284,3.9790206,3.7261294,3.9790206,6.5918335,0,2.8668942-1.4209513,4.872173-4.2628539,6.0182166-.3820145.1927924-.7592688.3855848-1.1371181.5736169-.3814195.1927924-.7592688.3855848-1.136523.5736169-1.8963868,1.338836-3.175124,3.0584965-3.8368065,5.1577913-.6658478,2.1052452-.9943089,5.0649654-.9943089,8.8851108v19.7755004c0,17.3882071.186247,34.4408126.5682615,51.1578165.3772542,16.7205742.7551035,31.9559329,1.136523,45.7120266.3778493,13.7560937.7551035,24.8892589,1.1371181,33.388785.3772542,8.5042863.5682615,13.3264761.5682615,14.4725197,0,2.2932773-1.5631654,4.2997462-4.6889012,6.0194067-3.1263308,1.7196605-7.0113354,3.0537362-11.6520386,4.0117477-4.6442734.9544413-9.3337696,1.432852-14.0672987,1.432852-5.4969631,0-8.2412794-2.5788957-8.2412794-7.7378771v-9.1707291h-111.6851049v12.0364332c0,2.2932773-1.5185376,4.2997462-4.5466871,6.0194067-3.0329098,1.7196605-6.8209232,3.0537362-11.3676103,4.0117477-4.5472821.9544413-9.0939692,1.432852-13.6412513,1.432852ZM692.0576009,959.8315822h-111.6851049v49.0073483h111.6851049v-49.0073483ZM692.0576009,1017.4372329h-111.6851049v50.154582h111.6851049v-50.154582ZM692.0576009,1076.1901174h-111.6851049v52.4466693h111.6851049v-52.4466693Z" fill="#3a5b19"/>
  <path d="M824.6148617,1160.7355287c-6.4424789,0-11.1319751-1.8624696-14.0667037-5.588599-2.9400839-3.7249393-4.405068-7.7866702-4.405068-12.1804325,0-3.8189553.9943089-7.4022755,2.9841167-10.7475804,1.9892128-3.3405446,4.7823222-5.588599,8.3834936-6.7346426,8.9029619-3.0537362,16.624773-6.7798656,23.1606729-11.177198,6.5364949-4.3925722,11.4122381-11.8448309,14.6361553-22.3543961.7545085-.7616489,1.7047845-1.1460436,2.8413075-1.1460436,1.1371181,0,2.1760548.4784107,3.1263308,1.432852.3772542,3.0584965.6616825,5.9242006.8526898,8.5971123.186247,2.677672.2838332,5.3517738.2838332,8.0246855,0,17.3882071-3.5077503,30.3802717-10.5149205,38.977384-7.0113354,8.5983024-16.1053046,12.8968585-27.2819077,12.8968585ZM809.8376824,1097.1116614c-2.8419026-.5736169-3.7921786-2.2932773-2.8419026-5.1589814,7.9568512-5.1589814,15.6298691-10.9356125,23.0190538-17.3394139,7.3885897-6.3990411,14.4933461-13.5156983,21.3136742-21.3511616-3.0329098-.3808245-5.6838051-1.6208841-7.9568512-3.7261294-2.2736411-2.1004849-3.4101641-5.1589814-3.4101641-9.1719192,0-6.1122327-.4266424-11.4140233-1.2793322-15.9053718-.8520947-4.4877783-2.5128464-8.5483192-4.9733295-12.1804325-3.6011713,4.3973325-7.2951687,8.5971123-11.083182,12.6100501-3.7921786,4.0129378-7.5795969,7.8366534-11.3670152,11.4640065h-.5688565c-1.136523,0-2.0380059-.4296176-2.6996884-1.2888528-.6658478-.8604253-.9943089-1.7648834-.9943089-2.7228949,5.6838051-7.066674,10.8433816-15.4769443,15.48825-25.2212903,4.6401081-9.744346,8.7119547-20.2491509,12.219705-31.5263153,3.5035851-11.270024,6.2966945-22.6400144,8.3834936-34.1040209,2.0826338-11.4640065,3.4101641-22.4484121,3.9784256-32.9591674,0-.9544413.0446279-1.9564857.1422141-3.0085133.093421-1.0484574.1422141-1.9576758.1422141-2.7228949,0-.7616489.2844283-1.2400597.8526898-1.432852.186247-.1880321.7545085-.2879985,1.7047845-.2879985,2.2736411.1927924,6.0122662.7664092,11.2253961,1.7208506,5.2089646.9580115,10.5149205,2.0064689,15.9142974,3.1513224,5.3999719,1.1472337,9.3296044,2.1052452,11.7942527,2.8668942,1.5137772.5724268,2.273046,1.8172467,2.273046,3.7261294,0,1.9112628-1.043102,3.1513224-3.1257358,3.7249393-2.0873941.3855848-3.5523782,1.0032345-4.405068,1.8636597-.8526898.8592352-1.5631654,2.3420705-2.1314269,4.4413653-.7592688,2.2932773-1.4697444,4.5865547-2.1314269,6.8786419-.6658478,2.2932773-1.4697444,4.5865547-2.4152602,6.8786419h19.892723c1.5143723,0,2.7443163-.7616489,3.6945923-2.2920872.3772542-.5736169,1.0389367-1.6220742,1.9892128-3.1537026.9461108-1.5268681,1.7053796-2.6729117,2.2736411-3.439321,1.136523-1.525678,2.6508953-1.9065025,4.5466871-1.1460436,2.2736411.7652192,5.3999719,2.0064689,9.3783975,3.7261294s8.001479,3.5369072,12.0780859,5.4457899c4.0718466,1.9112628,7.4332175,3.7249393,10.0882781,5.4445998,1.5143723.7652192,2.2736411,2.1052452,2.2736411,4.0117477,0,2.2932773-1.043697,3.7273195-3.1263308,4.2997462-.7592688.1927924-1.4209513.3843947-1.9892128.5724268-.5682615.1927924-1.136523.4796008-1.7047845.8604253-2.6556556,1.338836-4.7382894,4.2997462-6.2520666,8.8839207-.3820145,1.9136429-.8526898,3.7273195-1.4209513,5.4457899-.5688565,1.7196605-1.1371181,3.439321-1.7053796,5.1589814h23.3034821c.186247-3.2465286.3284611-6.4490243.4260474-9.6003467.093421-3.1537026.1422141-6.350248.1422141-9.6015368,0-14.1381083-.3332214-24.6476734-.9949039-31.5251252-.6658478-6.8786419-1.4697444-11.4651966-2.4152602-13.7572838-.5682615-1.1472337-.6664428-2.194501-.2844283-3.1525125.5682615-.7616489,1.5143723-1.1460436,2.8419026-1.1460436,1.7053796,0,4.3562749.1927924,7.9574462.5724268,3.596411.3855848,7.4820107.8152024,11.6514435,1.2900429,4.1652676.4796008,8.0502722,1.0032345,11.6514435,1.5768513,3.5970061.5724268,6.2526617,1.0520276,7.9574462,1.432852,1.323365.1927924,2.1760548.7652192,2.5574743,1.7184704.3778493.9592016.5688565,1.9124529.5688565,2.8657041-.1910073,2.2944674-1.6119586,3.6321133-4.2628539,4.0129378-3.7921786.3855848-5.6838051,2.1992613-5.6838051,5.4457899v29.8066548c0,3.6309233-.0487931,7.0702442-.1422141,10.3167728-.0975863,3.2512889-.2398004,6.4978174-.4260474,9.744346h35.5231871c2.8419026,0,4.9245364-.9532512,6.2520666-2.8657041.9455157-1.5268681,2.5574743-3.8689385,4.8311154-7.0226412,2.2736411-3.1513224,3.7874183-5.3958066,4.5466871-6.7334526.7551035-1.3352658,1.7988006-2.0064689,3.1263308-2.0064689,1.323365,0,3.7386252,1.3376459,7.2469706,4.0117477,3.50299,2.677672,7.1041614,5.6373922,10.7987537,8.8839207,3.6945923,3.2512889,6.2966945,5.8313746,7.8152321,7.7390672.7551035.9580115,1.136523,2.0052788,1.136523,3.1525125,0,2.2920872-.950276,3.439321-2.8419026,3.439321h-76.4457511c.9455157,11.2747843,3.9296324,20.9703372,8.9517551,29.0890387,5.0173623,8.1234619,11.4604362,15.0461366,19.3244614,20.7787349,7.8598599,5.7325983,16.6253681,10.5595484,26.2875988,14.4725197,9.6622307,3.9189218,19.6088897,7.3094496,29.839382,10.1751537-4.1694329,1.9112628-8.623294,5.0149822-13.3568231,9.3135383-4.7376944,4.2997462-9.0939692,8.7910948-13.0723948,13.4704754-3.9784256,4.6841409-6.9185095,8.7411115-8.810136,12.1804325-15.1591939-7.8318931-27.5217081-20.0123256-37.0863525-36.5412975-9.5688097-16.5242116-15.2038217-36.4425212-16.9086062-59.7549288-3.4101641,19.8730867-9.7116189,36.159283-18.8984141,48.8645392-9.1915555,12.7088264-20.7948009,22.8328068-34.8127114,30.3790816-14.0232659,7.5510351-30.3148175,13.6132845-48.8806052,18.1998392-2.4640533-1.7208506-2.9394888-3.627353-1.4209513-5.7325983,22.5442133-7.4510687,39.9282551-19.4398989,52.1485551-35.9676806,12.219705-16.5254016,19.7511039-39.5010176,22.5930064-68.926848h-25.8609564c-6.6340812,17.7678414-14.164885,33.0567536-22.5930064,45.8560259-8.4322867,12.8028425-17.6196769,23.692042-27.5663359,32.6711689-9.946064,8.9838871-20.2747375,16.6229879-30.975905,22.9280129-10.7059278,6.305025-21.6474907,11.9424172-32.8234987,16.9097963ZM869.2326131,1028.3276226c2.0820388-3.2465286,3.9784256-6.5918335,5.6832101-10.0299643,1.7053796-3.439321,3.4107591-6.973848,5.1155436-10.6047713-2.6550606,0-5.0221226-.8604253-7.1047564-2.5788957-2.0867991-1.7208506-3.3167431-4.3937623-3.6939973-8.0258756-.5688565-5.1577913-1.4697444-9.837172-2.7002835-14.0429021-1.2341093-4.2009699-3.1745289-7.8318931-5.8254242-10.8903896-3.0329098,5.7314082-6.3008598,11.2759744-9.8044449,16.6217978-3.5077503,5.3517738-7.1535496,10.5107552-10.9409679,15.4769443,7.9568512,2.4860697,14.4933461,5.7325983,19.6082947,9.744346,5.1155436,4.0117477,8.3347004,8.7910948,9.6628258,14.3297106ZM891.9672386,975.3073364c2.8419026-9.5515536,5.1155436-19.6767241,6.8203282-30.3802717h-25.0082666c-2.2736411,5.7325983-4.8311154,11.4651966-7.6730179,17.1966048,11.9358718,1.7196605,20.5550005,6.116993,25.8609564,13.1836669ZM907.3132745,1158.1566331c-3.7921786,0-7.0601286-1.0032345-9.8044449-3.0097034-2.7484816-2.0064689-4.1206397-5.1137585-4.1206397-9.3147284,0-10.8903896-.8526898-20.2491509-2.5574743-28.0858043-1.7053796-7.8318931-5.0221226-14.8045511-9.946659-20.921544v-.5736169c0-2.2932773,1.229944-3.627353,3.6945923-4.0117477,13.2586418,3.6309233,24.1555768,8.9826971,32.6812845,16.049371,8.5257077,7.0702442,12.7885616,16.1481474,12.7885616,27.2265691,0,7.6391008-2.5134415,13.3264761-7.5313988,17.0526055-5.0221226,3.7249393-10.0882781,5.588599-15.2038217,5.588599ZM970.4027975,1157.2962078c-3.2239171,0-6.1586456-.9580115-8.810136-2.8657041-2.6550606-1.9124529-4.1694329-4.778157-4.5466871-8.5983024-.950276-10.1239804-2.9394888-19.582708-5.9676384-28.3726127-3.0329098-8.7863345-7.3891847-16.1433871-13.0729898-22.0675877v-.5736169c0-2.4813094,1.1371181-3.9141615,3.4101641-4.2997462,14.9646164,4.3985226,27.1843214,10.0311544,36.6603051,16.9097963,9.4712235,6.8786419,14.2095129,16.2421634,14.2095129,28.0869944,0,7.066674-2.4158552,12.4672409-7.2469706,16.1921802-4.8311154,3.7261294-9.7110239,5.588599-14.6355602,5.588599ZM1024.3983513,953.2385587c-2.4646483,0-4.7870825-.6664428-6.9625423-2.0064689-2.1802201-1.3328856-3.6499645-3.5321469-4.405068-6.5906434-1.3275303-6.305025-3.3661312-12.1804325-6.1098525-17.6262223-2.7490766-5.4445998-6.7762953-9.6003467-12.0780859-12.4660508-.3820145-.7616489-.5682615-1.432852-.5682615-2.0064689,0-2.1004849.9455157-3.439321,2.8419026-4.0129378,12.5041333,0,22.9214675,2.2480544,31.2603332,6.7358327,8.3347004,4.4913485,12.5041333,11.2259912,12.5041333,20.205118,0,5.5433761-1.8029658,9.8871552-5.3993769,13.0396677-3.6011713,3.1525125-7.2957637,4.7281737-11.083182,4.7281737ZM1042.5862897,1160.163102c-2.6556556,0-5.1643368-.8152024-7.5313988-2.4360865-2.3712273-1.6256444-4.0272187-4.0617309-4.9733295-7.3082595-3.0323148-11.8448309-7.4861759-22.6412045-13.356228-32.3855505-5.8748124-9.744346-13.2639971-17.8630476-22.1669591-24.360865,0-.3808245-.0487931-.6188398-.1416191-.716426-.0981813-.0952061-.1422141-.2380153-.1422141-.4308077,0-2.0992949,1.0389367-3.439321,3.1257358-4.0117477,12.1227138,2.4860697,22.9702607,5.7802013,32.5396654,9.8871552,9.5646445,4.1117141,17.2864555,9.1266963,23.1612679,15.0461366,5.8700521,5.9253907,9.1867952,13.1836669,9.946064,21.7819693.7551035,7.6391008-1.1853161,13.7073006-5.8254242,18.1986491-4.6448684,4.4877783-9.5206116,6.7358327-14.6355602,6.7358327Z" fill="#3a5b19"/>
  <path d="M1213.5041498,1142.5380697c-2.01964-1.5075917-2.4413231-3.3959001-1.2618787-5.6590502,21.703468-8.2993919,43.260096-25.9217413,56.7096508-41.8166697,13.4050212-15.8422977,20.9272608-37.5923851,20.9272608-63.6256611,0-17.9207173-3.4072838-32.9190805-10.2207947-44.9939144-6.8145677-12.0701337-16.0260707-21.1262591-27.6355661-27.1660261-11.6084385-6.0350668-24.8190613-8.865767-39.6223568-8.4897504,7.4021762,8.3040922,11.1043211,19.2426508,11.1043211,32.8262514,0,2.0774919-.0866617,4.2442877-.2515303,6.5086128-.1701528,2.2643251-.4227399,4.6250045-.7577613,7.0749878-2.5237574,18.8666342-6.2692332,35.2797599-11.2300862,49.237027-4.9650805,13.9643174-10.5600434,25.942797-16.7827752,35.938964-6.2269592,10.0008672-12.7054486,18.5834466-19.4333546,25.7512636-6.0568063,6.6061421-12.2827087,9.9045129-18.6745364,9.9045129-5.0475148,0-10.6868654-2.1667958-16.9095972-6.5086128-4.3764151-3.2055417-8.6238946-8.1090335-12.744552-14.7151756-4.1248849-6.6014419-7.4449786-14.383811-9.968736-23.3459322-2.5237574-8.957421-3.7856361-18.4377402-3.7856361-28.4397824,0-12.8268671,2.6500509-25.468076,7.9496244-37.9189265,5.2995734-12.4508505,12.4924934-23.8136029,21.5782313-34.0988326,9.0846811-10.2805295,19.514732-18.6280986,31.2943802-25.0438823,11.7743639-6.4110835,24.2272254-10.0889961,37.3501297-11.0360879,1.3453698-.1856582,2.7330136-.2820125,4.1650452-.2820125h4.1639883c14.1321959,0,27.2128261,2.4041563,39.2440045,7.214819,12.026951,4.8106627,22.5003328,11.557811,31.4201453,20.2332196,8.9155851,8.6801088,15.8559179,18.8678092,20.8209984,30.5619263,4.9597962,11.6988173,7.4444502,24.5256844,7.4444502,38.4853016,0,19.2426508-3.8722978,36.1774996-11.6094953,50.7951459-7.7403681,14.6211715-18.7189241,26.6971804-32.9346111,36.2209765-14.2188575,9.5284963-40.8342302,18.6153919-60.3489622,22.3873086ZM1166.7213022,1077.2789905c4.8784188-5.0926752,9.9259336-11.7881212,15.1425443-20.0910383,5.2134402-8.2993919,10.0083678-18.5799215,14.384783-30.8451138,4.3732446-12.2604921,7.6547633-26.6924802,9.8424424-43.2959643.3360782-3.2055417.6309393-6.2254253.8835265-9.0549504s.3783522-5.3770377.3783522-7.6401878c0-6.2254253-.8433662-11.2217462-2.5237574-14.9983631-9.4239299,1.3219334-18.2961842,4.8600149-26.6252176,10.6118942-8.3279766,5.7565795-15.6466617,13.0654027-21.9560551,21.9311697-6.3093935,8.8692921-11.2300862,18.5834466-14.7631352,29.1471637-3.5341058,10.5672422-5.3001019,21.3201426-5.3001019,32.2598763,0,13.7716089,2.0185832,23.3929343,6.0568063,28.8639762,4.0382232,5.473392,8.4114678,8.2053878,13.1229043,8.2053878,4.2041486,0,7.9897847-1.6979501,11.3569082-5.0938502Z" fill="#3a5b19"/>
  <path d="M1413.3503151,1164.5247322c-4.5949398,0-6.8918084-2.2482414-6.8918084-6.7422898,0-.782685.0937988-3.9572458.2862067-9.5273339.1888002-5.5688709.4317151-12.6507706.7179218-21.2517852.2874092-8.5973629.5255139-17.9774108.7179218-28.141361.1888002-10.1602985.381208-20.2731246.5748184-30.3396956.1888002-10.0641366.2874092-19.2007366.2874092-27.4098001v-25.7957404c-4.980958,7.8195468-10.2445151,15.0962048-15.7942788,21.8397119-5.5545739,6.7410726-11.1055402,12.947777-16.6553039,18.6140271h-.5748184c-2.2968686,0-3.6389133-1.2683636-4.0201214-3.811177,5.7433741-8.5973629,11.2931379-19.2007366,16.6553039-31.805252,5.3573559-12.6057327,10.194008-25.9430264,14.5015386-40.0130983,4.3075306-14.0712891,7.8478349-27.7481926,10.6257231-41.0404485,2.773078-13.2873869,4.4506339-24.7197007,5.0254524-34.2969414,0-.7790333.0444943-1.5118115.1431033-2.1983346.0950014-.6828714.1443059-1.4156496.1443059-2.1983346,0-.9762261.2862067-1.5629356.8610251-1.7601284.1888002-.1923238.7624161-.2921375,1.7232527-.2921375,3.4453029.5867095,7.7528335,1.6116252,12.9225918,3.0771816,5.1685557,1.4655564,10.3828082,3.0333609,15.649973,4.6912412,5.2635571,1.6627492,9.5217831,3.0771816,12.7782859,4.2506005.9560265.1971928,1.5308449.6865231,1.7232527,1.4655564.1888002.782685.2874092,1.5653701.2874092,2.3444034,0,1.1734189-.2874092,2.3005827-.8610251,3.3717535-.5748184,1.0760398-1.4358435,1.5166805-2.5854804,1.3194877-2.4892765,0-4.2618337.4382062-5.311659,1.3182704-1.0546355.8800642-2.0599665,2.6888822-3.0159929,5.4228022-1.9156606,6.0594185-4.0694259,12.0701473-6.4612959,18.0285349-2.3954776,5.9632565-4.930451,11.7767926-7.6097302,17.4418254v193.4717049c0,1.951235-1.2915376,3.7101461-3.8758155,5.2767334-2.5854804,1.5617183-5.88768,2.73392-9.9078014,3.5178223-4.0201214.7778161-8.0402428,1.1722017-12.0603641,1.1722017ZM1445.5124886,1163.6458852c-1.3420447-.7839023-2.010662-1.9561039-2.010662-3.5178223,0-.3943856.0456969-.7839023.1443059-1.1734189.0937988-.3931684.2369022-.782685.4305125-1.1722017,14.1648249-4.3005073,26.6075996-9.7744335,37.3307292-16.4156925,10.719522-6.641259,19.4295845-15.828983,26.1325928-27.5546516-4.7873477-5.4690573-9.1441828-11.5795998-13.0656951-18.3206724-3.9263226-6.7435071-7.2285222-14.2173579-9.9078014-22.4264214-5.7433741,2.1532968-12.0603641,3.2256848-18.9521726,3.2256848-4.980958,0-7.4666269-2.3456206-7.4666269-7.0356446,0-1.1734189.0937988-4.4429243.2874092-9.8206886.1875976-5.3728953.381208-11.8218305.5736159-19.3468053.1888002-7.5213231.381208-15.3396527.5748184-23.4513371.1888002-8.1068154.2874092-15.6829143.2874092-22.7185589,0-11.5284757-.1936104-20.1757454-.5748184-25.9418092-.3860182-5.762412-1.0546355-9.6234958-2.0094594-11.5795998-.3860182-1.1722017-.2874092-2.0522659.2862067-2.6377581.5748184-.5867095,1.4358435-.7790333,2.5854804-.5867095,2.2968686.5867095,5.7421716,1.7576939,10.3371114,3.5178223,4.5949398,1.7576939,9.2343739,3.663891,13.9279228,5.7161569,4.6887386,2.0522659,8.4707553,3.8610838,11.3424424,5.4228022h28.1420522v-33.4180944h-33.0231987c-6.3181926,0-11.823462.1010309-16.5122006.2933547-4.6935488.1971928-9.5253908.5867095-14.5015386,1.1722017l-3.4465055-12.6045155c9.1898796,1.1722017,20.6766279,1.9548867,34.4602447,2.3444034h95.6254956c3.2528951,0,5.4559649-1.0711708,6.6043992-3.2232503.9560265-1.1734189,2.1537653-2.8312992,3.5896088-4.9833787,1.4358435-2.149645,2.8716871-4.2968556,4.3075306-6.4489351,1.4358435-2.149645,2.4411745-3.7101461,3.0159929-4.6912412,1.1484343-1.5617183,2.3906675-2.3444034,3.7327122-2.3444034.5748184,0,1.1484343.0998136,1.7232527.2921375.5736159.1971928,1.1484343.4905475,1.7232527.8800642,2.4856688,1.3693945,5.4559649,3.4216604,8.9012678,6.1555804,3.4465055,2.738789,6.7487051,5.5700882,9.9078014,8.501201s5.4066604,5.3777643,6.7475026,7.3277821c.9560265.9810951,1.4358435,2.1532968,1.4358435,3.5178223,0,2.5428134-1.0534329,3.811177-3.1578937,3.811177h-78.3965757v33.4180944h25.8451835c2.2968686,0,3.9215124-.8800642,4.8811465-2.6377581l5.4571675-9.3812652c.9548239-1.7589111,2.1044608-2.6377581,3.4453029-2.6377581.381208,0,.7624161.0499068,1.1484343.1460687.381208.1010309.8622276.2483169,1.4358435.4406407,2.6792792.9786606,5.88768,2.2981483,9.6203922,3.9560285,3.7327122,1.6627492,7.4666269,3.4228776,11.199339,5.2779507,3.7327122,1.8587248,6.7487051,3.5665119,9.0455737,5.1294474,2.2980712,1.1722017,3.4465055,3.0321437,3.4465055,5.5700882,0,2.5415962-1.4358435,4.3966692-4.3075306,5.5688709-1.5344526.5854922-2.6828869,1.2732326-3.4465055,2.0522659-2.6828869,1.9561039-4.0201214,5.5688709-4.0201214,10.8456043,0,6.2578285.0937988,13.242349.2874092,20.9596477.1888002,7.7221677.4750069,15.1972357.8610251,22.4252041.381208,7.2316201.6686173,13.3372937.8622276,18.3206724.1875976,4.9833787.2862067,7.7684228.2862067,8.3551322,0,2.1520795-1.4358435,4.0071526-4.306328,5.5700882-2.8716871,1.5653701-6.4168016,2.7850441-10.6257231,3.663891-4.2137318.878847-8.5212624,1.3194877-12.9225918,1.3194877-5.1685557,0-7.7528335-2.3456206-7.7528335-7.0356446v-7.3289993h-31.8759669c-.9596341,9.7744335-2.6828869,18.7613131-5.1685557,26.9691593-2.490479,8.2078462-5.5545739,15.7328211-9.1898796,22.5712729,9.9522957,3.1283056,20.433713,5.5238331,31.4454543,7.1817133,11.0057286,1.6627492,22.0619643,2.7850441,33.1675045,3.3717535,11.10073.5867095,21.5364504.878847,31.2999459.878847-5.5545739,4.4977001-10.3371114,10.6033737-14.3572328,18.3218896-4.0201214,7.7172987-6.5106004,14.899012-7.4666269,21.5451399-15.1256616-.9798778-30.6818357-3.663891-46.6649147-8.0605603-15.9866867-4.3978865-30.5820241-11.6757617-43.7920251-21.8397119-9.3822875,8.9917485-20.630931,16.2696237-33.742323,21.8397119-13.1149996,5.5688709-28.1913567,9.7184405-45.2278687,12.4584467ZM1515.2928006,1096.8096963c1.9120529-5.4690573,3.4909998-11.382407,4.7392457-17.7351802,1.2422331-6.3479042,2.1537653-13.23748,2.7273812-20.666293h-30.4389208v7.6211368c0,1.3706117-.7672263,2.6389753-2.2980712,3.8123943,2.6792792,5.6699018,6.2195835,10.7482252,10.6257231,15.2422736,4.4013294,4.4977001,9.2836784,8.4050391,14.644642,11.7256685ZM1523.9078618,976.6231155h-31.5873551v31.0724738h31.5873551v-31.0724738ZM1523.9078618,1016.7822825h-31.5873551v32.831385h31.3011485c.1875976-2.73392.2862067-5.46784.2862067-8.206629v-24.624756ZM1556.0712379,1049.6136675h31.0137392v-32.831385h-30.4401234v16.123555c0,2.9311128-.0493045,5.7660637-.1431033,8.501201-.098609,2.738789-.2429149,5.472709-.4305125,8.206629ZM1587.0849772,976.6231155h-30.4401234v31.0724738h30.4401234v-31.0724738Z" fill="#3a5b19"/>
  <path d="M1736.4967056,1156.8330477c-1.7180625-1.0918967-2.244755-2.5106129-1.582261-4.2551049.1933128-.509035.596093-.9207191,1.0989276-1.12963,16.0006033-6.6477152,29.0678005-15.9464095,39.1958164-27.9027087,10.2721006-12.1248995,17.9059059-26.2462035,22.9026224-42.3558388,4.991891-16.1096353,7.4890429-33.329922,7.4890429-51.6608602,0-23.3317528-2.9796933-39.7181859-8.9294291-49.1616062-5.9557675-9.4434202-13.1576983-13.5146554-21.6057923-12.2206254-4.4200794.5559024-8.6917774,3.1508823-12.8199193,7.7768665-4.1317609,4.6305975-7.7773614,10.2772738-10.9464522,16.9423355-3.1690908,6.6662151-5.6662427,13.6103813-7.4902493,20.8313454-1.8264193,7.2209641-2.7360099,13.7960666-2.7360099,19.720694v4.4426056c0,4.0758485.0940956,7.9164187.2883185,11.5263241.1881912,3.612212.8637491,7.2705571,2.0158168,10.9715751,1.3414652,3.7056313,2.0170232,7.1310048,2.0170232,10.2772738,0,7.0387389-3.2680118,11.6647231-9.7943846,13.8871792-1.7287047.554749-3.4574093.8327002-5.186114.8327002-6.5311982,0-11.7161058-5.4586844-15.5559292-16.3875865-2.4971519-7.0341256-4.2258565-14.2078034-5.1849076-21.5244934-.9626701-7.3132301-1.4403862-14.5814805-1.4403862-21.8035979,0-11.1088207.8142887-21.8947105,2.4488977-32.3576696,1.6297837-10.4583457,3.2137259-20.1358908,4.753033-29.024562,1.5344817-8.8875179,2.3041353-16.5686584,2.3041353-23.0526482v-1.6665538c0-4.6259842-.1930166-8.7018327-.5754306-12.2206254-.3872395-3.5153328-1.8276256-6.6650617-4.3211585-9.4434202v-.554749c0-2.0544851.9845042-3.3145941,2.9535125-3.788527.3236279-.077896.6756005-.0517924.9950446.0417933,8.2166358,2.4071808,14.7272258,5.970792,19.5294959,10.6897467,4.8965891,4.817436,7.3454868,11.8515616,7.3454868,21.1081433,0,5.0008146-1.2015281,10.555225-3.6009654,16.6655377-2.4030563,6.1103127-4.851954,12.9149267-7.3454868,20.413842-2.4983582,7.4989153-3.7457278,15.7890111-3.7457278,24.8587543,0,1.4843285.0458414,3.0124834.1447624,4.5833112.0598444,1.0019748.1401832,2.0212105.2403956,3.0591905.0982853,1.0180196.9455354,1.8009185,1.9682885,1.8009185h.0000035c.9687272,0,1.782227-.7024917,1.9399836-1.6582873,1.4076379-8.5284142,3.9638125-17.142142,7.6615302-25.8392732,3.9351253-9.2565817,8.9306354-17.3113993,14.9804985-24.1632997,6.0498631-6.8484403,12.7197919-11.2010866,20.0206437-13.054479,4.2222375-.9238129,7.8726633-1.3886026,10.9476586-1.3886026,8.8305081,0,16.9963153,2.7345322,24.4853582,8.1932166,7.4902493,5.464451,13.5401124,13.8445062,18.148383,25.1367055,4.609477,11.2968126,6.9148186,25.7387408,6.9148186,43.3292446,0,34.6262587-8.3552048,62.8654068-25.0632016,84.7116777-16.5759449,21.6781853-40.9979649,36.7020287-73.2613481,45.0737825-.5431784.1409448-1.1307331.0409841-1.6043447-.2600147Z" fill="#3a5b19"/>
  <g>
    <path d="M573.886277,1336.331338c-6.6843895,0-12.8312891-1.313484-18.4412693-3.9393107s-10.166092-6.9622639-13.6666238-13.0104524l8.9518897-5.4901576c2.6258268,3.8194881,5.8074022,6.7637007,9.5487203,8.8326376,3.7396064,2.0700781,8.3944293,3.1028349,13.9650392,3.1028349,5.5688982,0,9.907047-1.1126385,13.0104524-3.3413389,3.1034054-2.2275593,4.6553934-5.4912988,4.6553934-9.787795,0-2.545945-.558031-4.7541044-1.67124-6.6244782-1.1154914-1.8692326-3.3419095-3.5604431-6.6843895-5.0724902-3.3419095-1.510906-8.396141-2.9430714-15.1587005-4.2976374-15.3584049-3.3424801-23.0367514-11.1788783-23.0367514-23.5137595,0-4.7746455,1.1525793-8.9524602,3.4617321-12.5334443,2.3068704-3.5809841,5.5295279-6.3859742,9.6679724-8.4149703,4.1367327-2.0289961,8.9518897-3.0434941,14.4426178-3.0434941,6.6843895,0,12.432451,1.3933657,17.2476079,4.1778148,4.8140157,2.7867314,8.8120966,6.2068109,11.9959544,10.2648031l-8.355059,6.8036416c-2.5476568-2.7844491-5.4519285-5.2516535-8.7133856-7.4004722-3.2637395-2.1476775-7.361102-3.2226575-12.2943697-3.2226575-4.6160232,0-8.4560523,1.0955209-11.5183757,3.2831393-3.0640352,2.1887596-4.5954821,5.390876-4.5954821,9.6074905,0,2.2287004.4964079,4.2382967,1.4920767,6.0287887.993957,1.7893509,2.8443604,3.3618799,5.5506395,4.7141636,2.7039968,1.354566,6.6427369,2.5870271,11.8162205,3.6996655,9.865965,2.0712193,16.9680219,5.1740541,21.3061707,9.3107869,4.3358665,4.1378739,6.5052262,9.5093501,6.5052262,16.1132873,0,5.0941724-1.2535727,9.4112096-3.7601474,12.9511117-2.5065748,3.5410432-5.9677362,6.2273519-10.3840551,8.0566436-4.4163188,1.8292917-9.5304617,2.7456494-15.3378639,2.7456494Z" fill="#3a5b19"/>
    <path d="M635.4819614,1336.3313094v-87.1338277h11.3271477v36.0985891h43.6912768v-36.0985891h11.4515107v87.1338277h-11.4515107v-40.4542689h-43.6912768v40.4542689h-11.3271477Z" fill="#3a5b19"/>
    <path d="M737.1787546,1336.3313094v-87.1338277h11.3271477v87.1338277h-11.3271477Z" fill="#3a5b19"/>
    <path d="M779.3752954,1336.3313094v-10.7047377l44.9360968-65.7231622h-43.3181879v-10.7059278h57.3837015v10.7059278l-44.9360968,65.7231622h45.6828698v10.7047377h-59.7483834Z" fill="#3a5b19"/>
    <path d="M869.993667,1336.3313094v-87.1338277h56.3876075v10.7059278h-45.0604598v26.5125232h41.0772739v10.8296957h-41.0772739v28.3809433h46.5540057v10.7047377h-57.8811534Z" fill="#3a5b19"/>
    <path d="M958.7442135,1336.3313094v-87.1338277h11.3271477l44.6873708,67.0929402v-67.0929402h11.4509156v87.1338277h-10.9534637l-45.1848228-68.3377602v68.3377602h-11.3271477Z" fill="#3a5b19"/>
    <path d="M1112.4723394,1336.3313094v-87.1338277h11.3271477l44.6873708,67.0929402v-67.0929402h11.4509156v87.1338277h-10.9534637l-45.1848228-68.3377602v68.3377602h-11.3271477Z" fill="#3a5b19"/>
    <path d="M1395.0321917,1336.3313094v-76.4278999h-27.3848493v-10.7059278h66.0968462v10.7059278h-27.2598912v76.4278999h-11.4521057Z" fill="#3a5b19"/>
    <path d="M1443.3278743,1336.3313094l33.9826331-87.1338277h10.0823277l33.9826331,87.1338277h-12.8218837l-8.3400558-22.2818014h-35.973631l-8.3400558,22.2818014h-12.5719677ZM1468.0993157,1303.3447703h28.2559852l-13.9417457-37.840861-14.3142396,37.840861Z" fill="#3a5b19"/>
    <path d="M1558.9699834,1336.3313094v-37.093493l-29.1283113-50.0403347h13.1943776l21.7843495,37.592135,21.5344334-37.592135h13.3181456l-29.1271212,50.0403347v37.093493h-11.5758737Z" fill="#3a5b19"/>
    <path d="M1730.1268085,1336.5800891v-87.1338h27.2219146c5.9437167,0,11.1926235.7726737,15.7504881,2.3180212,4.5562948,1.5453475,8.1427443,4.101356,10.7580926,7.6673976,2.6150344,3.5660416,3.9227086,8.3618935,3.9227086,14.3834741,0,5.7857911-1.3076742,10.600167-3.9227086,14.4431279-2.6153484,3.8448447-6.2017979,6.6978663-10.7580926,8.5587511-4.5578646,1.8630825-9.8067714,2.7936818-15.7504881,2.7936818h-16.2854885v36.9693462h-10.9364261ZM1741.0632346,1290.8140045h14.6211474c6.8149762,0,12.0453589-1.405946,15.6911483-4.2197217,3.6442195-2.8122059,5.46837-7.0730574,5.46837-12.7791007,0-5.7057294-1.8241505-9.7066158-5.46837-12.006113-3.6457893-2.2976134-8.8761721-3.447048-15.6911483-3.447048h-14.6211474v32.4519834ZM1777.9135872,1336.5800891l-22.8235455-39.8223679,8.6777447-5.824723,26.5085807,45.6470909h-12.36278Z" fill="#3a5b19"/>
    <path d="M1825.0984501,1336.3313094v-87.1338277h11.3271477v87.1338277h-11.3271477Z" fill="#3a5b19"/>
    <path d="M1250.3670788,1336.331338c-24.023412,0-43.5669281-19.5435161-43.5669281-43.5669281s19.5435161-43.5669281,43.5669281-43.5669281,43.5669281,19.5435161,43.5669281,43.5669281-19.5435161,43.5669281-43.5669281,43.5669281ZM1250.3670788,1260.2426185c-17.932767,0-32.5217914,14.5890244-32.5217914,32.5217914s14.5890244,32.5217914,32.5217914,32.5217914,32.5217914-14.5890244,32.5217914-32.5217914-14.5890244-32.5217914-32.5217914-32.5217914Z" fill="#3a5b19"/>
    <path d="M1656.1736287,1336.331338c-24.023412,0-43.5669281-19.5435161-43.5669281-43.5669281s19.5435161-43.5669281,43.5669281-43.5669281,43.5669281,19.5435161,43.5669281,43.5669281-19.5435161,43.5669281-43.5669281,43.5669281ZM1656.1736287,1260.2426185c-17.932767,0-32.5217914,14.5890244-32.5217914,32.5217914s14.5890244,32.5217914,32.5217914,32.5217914,32.5217914-14.5890244,32.5217914-32.5217914-14.5890244-32.5217914-32.5217914-32.5217914Z" fill="#3a5b19"/>
  </g>
</svg>