<?xml version="1.0" encoding="UTF-8"?>
<svg id="_レイヤー_2" data-name=" レイヤー 2" xmlns="http://www.w3.org/2000/svg" viewBox="0 0 1793.414483 2000">
  <path d="M1183.5656076,267.4387817l-32.1011963,90.3588562c-.2332764.6567383.1334229,1.3731384.8016357,1.5713806,250.9676514,74.4627991,424.2969971,237.7529297,518.8377686,491.1866455.1749268.4690552.6193848.7839966,1.119873.7914429l119.9494629,1.7902832c.8326416.0124512,1.4346924-.7994995,1.1838379-1.5935669-96.0800781-304.1618652-293.4399414-504.6737366-608.3356934-584.8803101-.6115723-.1557617-1.2445068.1806335-1.4558105.7752991l.0001221-.0000305Z" fill="#3a5b19"/>
  <path d="M1663.5892892,1422.8760986h117.9547119c.9042969,0,1.4962158.9552002,1.0963135,1.7662354-312.4122314,633.5134277-1177.1469727,552.4541016-1399.7264404.6895752-.565094-1.4008789,1.4118347-2.3786621,2.1835632-1.0800781,300.5123596,505.6494141,998.1604309,519.2335205,1277.42276-.7351074.2115479-.3939209.6221924-.640625,1.0692139-.640625h-.0001221Z" fill="#3a5b19"/>
  <path d="M108.1352792,543.8238525c47.7550049,55.239502,82.1206665,123.2138672,105.2005615,201.9222412.3783264,1.2901611-1.3005066,2.1523438-2.1298523,1.0941162-40.8780212-52.15979-245.8862762-4.6796875-206.114151-391.1005554.1223755-1.1890259,1.7158966-1.5165405,2.281868-.4637451,67.525444,125.6098328,285.2438431,54.7839661,226.3046646,429.5334167-.2217102,1.40979-2.2729797,1.3639526-2.421814-.0553589-7.5946045-72.4353638-30.1131287-196.897644-121.6490021-242.8184204-1.1845093-.5942383-2.338974.8857422-1.47229,1.8882446l.0000153.000061Z" fill="#3a5b19"/>
  <path d="M278.7742868,700.3222656C329.5656381,79.6112137,992.3975168,283.6569214,1175.6220041.5666635c.6606445-1.0206707,2.2478027-.5752636,2.2524414.6405287,1.3724365,360.7191994-293.0255127,923.4001076-825.4543457,795.484153-.487915-.1171875-1.0015869.0767212-1.2886353.4882812-457.9768426,656.6900024,631.5230103,1616.0269165,1358.8699341,800.869812,1.0155029-1.1380615,2.7730713.244751,1.9105225,1.5026855C951.2113595,2708.8439941-764.1498465,1251.9222412,721.0239206,390.6328125c1.319397-.7651367.3241577-2.767395-1.0822144-2.177124-190.3397827,79.8907166-264.6102295,122.3217163-439.0406494,312.7891846-.7842102.8563232-2.2214661.2346191-2.12677-.9226685v.000061Z" fill="#3a5b19"/>
  <path d="M447.5242868,1160.7354736c-5.4969482,0-8.241272-2.5788574-8.241272-7.737915,0-.9580078.1422119-5.7813721.4260254-14.4737549.2844238-8.6911621.6616821-20.0611572,1.137146-34.1040039.4707031-14.0440674.8526611-29.6138916,1.1365356-46.7164307.2844238-17.0966797.4266357-34.342041.4266357-51.7302246,0-18.72229-.190979-33.2459717-.5688477-43.5627441-.3814087-10.3179932-1.2341309-17.6714478-2.5574951-22.0675659-.5682373-1.1472168-.2838135-2.1016846.8526611-2.8668823.5682373-.9532471,1.7047729-1.2400513,3.4101562-.8592529,2.6508789.5724487,6.1098633,1.7196655,10.3726807,3.4381104,4.2628784,1.7208252,8.7119751,3.583313,13.3568115,5.588623,4.6401367,2.0064697,8.7607422,3.8701172,12.3619385,5.588623h17.9041138c.5682373-3.4381104,1.0877075-7.6379395,1.5631714-12.6100464.4707031-4.9650269.9454956-10.0751953,1.4203491-15.3329468.4707031-5.2529907.803894-9.887146.9949341-13.9000854v-8.0234985c0-1.7208252.2844238-2.6740723.8526611-2.8657227.5682373-.3807983,1.5143433-.5736084,2.8419189-.5736084,3.5964355.3855591,8.6185303,1.1460571,15.0615845,2.2921143,6.4389038,1.1472168,12.9747925,2.342041,19.6088867,3.5821533,6.6299438,1.244812,11.744873,2.342041,15.3460083,3.2965088,2.4598999.9580078,3.6945801,2.5800781,3.6945801,4.8721924,0,1.3388062-.4260254,2.4848633-1.2787476,3.4393311-.8526611.9580078-2.0380249,1.4328613-3.5523682,1.4328613-2.4646606.1928101-4.5473022.5736084-6.2520752,1.1472168-1.7053833.5724487-3.4101562,1.7184448-5.1155396,3.4381104-4.7376709,4.7781372-10.1864624,9.8431396-16.3409424,15.1901245-6.1586304,5.3517456-11.9846802,10.223938-17.477478,14.6153564h74.4571533c1.8916016,0,3.312561-.760437,4.2628784-2.2921143.9454956-1.5268555,2.0338135-3.2965088,3.2679443-5.3018188,1.2299194-2.0064697,2.3182983-3.9629517,3.2679443-5.8754272.946106-1.5268555,2.2736206-2.2921143,3.9790039-2.2921143.3772583,0,1.1365356.1928101,2.2736206.5724487,2.6508789.9580078,5.9676514,2.2932739,9.9460449,4.0117188,3.9790039,1.7208252,7.9086304,3.5393066,11.7936401,5.4458008,3.8814087,1.9124756,6.9625244,3.5380859,9.2362061,4.8721924,2.6508789,1.5316162,3.9790039,3.7261353,3.9790039,6.5918579,0,2.8668823-1.4209595,4.8721924-4.2628784,6.0181885-.382019.1928101-.7592773.3855591-1.137146.5736084-.3814087.1928101-.7592773.3855591-1.1365356.5736084-1.8963623,1.3388062-3.1751099,3.0584717-3.836792,5.1577759-.6658325,2.1052246-.9943237,5.0649414-.9943237,8.8851318v19.7755127c0,17.3881836.1862183,34.4407959.5682373,51.1578369.3772583,16.7205811.755127,31.9559326,1.1365356,45.7120361.3778687,13.7561035.755127,24.8892822,1.137146,33.3887939.3772583,8.5042725.5682373,13.326416.5682373,14.4725342,0,2.293335-1.5631714,4.2998047-4.6889038,6.0194092-3.1263428,1.7196045-7.0113525,3.0537109-11.6520386,4.0117188-4.6442871.9544678-9.3337402,1.4328613-14.0673218,1.4328613-5.4969482,0-8.241272-2.5788574-8.241272-7.737915v-9.1707764h-111.6851196v12.036377c0,2.293335-1.5185547,4.2998047-4.5466919,6.0194092-3.0328979,1.7196045-6.8209229,3.0537109-11.3676147,4.0117188-4.5473022.9544678-9.0939941,1.4328613-13.6412354,1.4328613l.0002441.0001221ZM588.7649484,959.831604h-111.6851196v49.0073242h111.6851196v-49.0073242ZM588.7649484,1017.4372559h-111.6851196v50.154541h111.6851196v-50.1546021.000061ZM588.7649484,1076.1900635h-111.6851196v52.4466553h111.6851196v-52.4466553Z" fill="#3a5b19"/>
  <path d="M721.3221994,1160.7354736c-6.4425049,0-11.131958-1.8624268-14.0667114-5.588623-2.9400635-3.7249756-4.4050903-7.7866211-4.4050903-12.1804199,0-3.8189697.9943237-7.4022217,2.9841309-10.7475586,1.9891968-3.3405762,4.7823486-5.588623,8.3834839-6.7346191,8.9029541-3.0537109,16.6247559-6.7799072,23.1606445-11.1772461,6.536499-4.3925781,11.4122314-11.8448486,14.6361694-22.3543701.7545166-.7615967,1.7047729-1.1459961,2.8413086-1.1459961,1.137146,0,2.1760254.4783936,3.1263428,1.4328613.3772583,3.0584717.6616821,5.9241943.8526611,8.597168.1862183,2.6776123.2838135,5.3518066.2838135,8.0246582,0,17.3881836-3.5077515,30.380249-10.5148926,38.977417-7.0113525,8.5982666-16.1052856,12.8968506-27.2819214,12.8968506l.000061-.0001221ZM706.5450387,1097.1116943c-2.8419189-.5736084-3.7921753-2.293335-2.8419189-5.1589355,7.9568481-5.1589355,15.6298828-10.9356689,23.019043-17.3393555,7.3886108-6.3990479,14.4933472-13.5157471,21.3136597-21.3511963-3.0328979-.3808594-5.6837769-1.6208496-7.9568481-3.7260742-2.2736206-2.1004639-3.4101562-5.1589355-3.4101562-9.171875,0-6.1121826-.4266357-11.4140625-1.2793579-15.9053955-.8521118-4.487793-2.5128174-8.5483398-4.9733276-12.1804199-3.6011963,4.3973389-7.295166,8.5971069-11.0831909,12.6101074-3.7921753,4.0129395-7.5795898,7.8366699-11.3670044,11.4639893h-.5688477c-1.1365356,0-2.0380249-.4295654-2.699707-1.2888184-.6658325-.8604736-.9943237-1.7648926-.9943237-2.7229004,5.6837769-7.0666504,10.8433838-15.4769287,15.4882202-25.2213135,4.6401367-9.7443237,8.7119751-20.2491455,12.2197266-31.5263062,3.5036011-11.2700195,6.2966919-22.6400146,8.3834839-34.1040039,2.0826416-11.4639893,3.4101562-22.4484253,3.9784546-32.9591675,0-.9544678.0446167-1.9564819.1422119-3.0084839.0934448-1.0484619.1422119-1.9577026.1422119-2.7229004,0-.7616577.2844238-1.2400513.8526611-1.4328613.1862183-.1880493.7545166-.2880249,1.7047729-.2880249,2.2736206.1928101,6.0122681.7664185,11.2254028,1.7208252,5.2089844.9580078,10.5148926,2.0064697,15.9143066,3.1513062,5.3999634,1.1472168,9.3295898,2.1052246,11.7942505,2.8668823,1.5137939.5724487,2.2730713,1.8172607,2.2730713,3.7261353,0,1.9112549-1.0430908,3.1513062-3.1257324,3.7249146-2.0874023.3855591-3.5523682,1.0032349-4.4050903,1.8636475-.8526611.8592529-1.5631714,2.342041-2.1314087,4.4413452-.7592773,2.2932739-1.4697266,4.5865479-2.1314087,6.8786621-.6658325,2.2932739-1.4697266,4.5865479-2.4152832,6.8786621h19.8927002c1.5143433,0,2.7443237-.7616577,3.6945801-2.2921143.3772583-.5736084,1.0389404-1.6220703,1.9891968-3.1536865.946106-1.5268555,1.7053833-2.6729126,2.2736206-3.4393311,1.1365356-1.5256958,2.6508789-1.9064941,4.5466919-1.1460571,2.2736206.7651978,5.3999634,2.0064697,9.378418,3.7261353s8.0014648,3.5369263,12.078064,5.4458008c4.0718384,1.9112549,7.4332275,3.7249146,10.0882568,5.4445801,1.5143433.7651978,2.2736206,2.1052246,2.2736206,4.0117188,0,2.2932739-1.0437012,3.7272949-3.1263428,4.2997437-.7592773.1928101-1.4209595.3843994-1.9891968.5724487-.5682373.1928101-1.1365356.4796143-1.7047729.8604126-2.6556396,1.3388062-4.7382812,4.2997437-6.2520752,8.8839111-.382019,1.9136353-.8526611,3.7272949-1.4209595,5.4458008-.5688477,1.7196655-1.137146,3.4393311-1.7053833,5.1589966h23.3034668c.1862183-3.246521.3284912-6.4490356.4260254-9.6003418.0934448-3.1536865.1422119-6.3502197.1422119-9.6015625,0-14.1381226-.3331909-24.647644-.9949341-31.5251465-.6658325-6.8786621-1.4697266-11.46521-2.4152832-13.7572632-.5682373-1.1472168-.6664429-2.194519-.2844238-3.1525269.5682373-.7616577,1.5143433-1.1460571,2.8419189-1.1460571,1.7053833,0,4.3562622.1928101,7.9574585.5724487,3.5964355.3855591,7.4819946.8151855,11.6514282,1.2900391,4.1652832.4796143,8.050293,1.0032349,11.6514282,1.5768433,3.5969849.5724487,6.2526855,1.052002,7.9574585,1.4328613,1.3233643.1928101,2.1760254.7651978,2.5574951,1.7184448.3778687.9592285.5688477,1.9124756.5688477,2.8657227-.190979,2.2944946-1.6119385,3.6321411-4.2628784,4.0129395-3.7921753.3855591-5.6837769,2.1992798-5.6837769,5.4458008v29.8066406c0,3.6309204-.0487671,7.0702515-.1422119,10.3167725-.0975952,3.2512817-.2398071,6.4978027-.4260254,9.7443237h35.5231934c2.8419189,0,4.9245605-.9532471,6.2520752-2.8657227.9454956-1.5268555,2.5574341-3.8689575,4.8311157-7.022644,2.2736816-3.1513062,3.7874756-5.395813,4.5466309-6.7334595.755127-1.3352661,1.7988281-2.0064697,3.1263428-2.0064697,1.3233643,0,3.7386475,1.3376465,7.2469482,4.0117188,3.5029297,2.6776733,7.104126,5.6373901,10.7987061,8.8839111,3.6945801,3.2512817,6.2967529,5.8313599,7.8151855,7.7390747.755127.9580078,1.1364746,2.005249,1.1364746,3.1525269,0,2.2921143-.9503174,3.4393311-2.8419189,3.4393311h-76.4457397c.9454956,11.2747803,3.9296265,20.9703369,8.9517822,29.0890503,5.017334,8.1234741,11.4604492,15.0461426,19.3244629,20.7787476,7.8598633,5.7325439,16.6254272,10.5595703,26.2876587,14.4725342,9.6622314,3.9189453,19.6088867,7.3094482,29.8393555,10.1751709-4.1694336,1.9112549-8.623291,5.0150146-13.3568115,9.3135986-4.7376709,4.2998047-9.0939941,8.7911377-13.0723877,13.470459-3.9783936,4.684082-6.918457,8.7410889-8.8101807,12.1804199-15.1591797-7.8319092-27.5217285-20.0123291-37.0863647-36.5412598-9.5687866-16.5241699-15.2037964-36.4425049-16.9086304-59.7549438-3.4101562,19.8731079-9.7116089,36.1592407-18.8984375,48.864563-9.1915283,12.7088623-20.7947998,22.8327637-34.8126831,30.3790283-14.0232544,7.5510254-30.3148193,13.6132812-48.8806152,18.1998291-2.4640503-1.7208252-2.9395142-3.6273193-1.4209595-5.7325439,22.5441895-7.4510498,39.9282837-19.4399414,52.1485596-35.9676514,12.2197266-16.5253906,19.7510986-39.5010376,22.5930176-68.9268799h-25.8609619c-6.6340942,17.7678223-14.164856,33.0567627-22.5930176,45.8560791-8.432312,12.8028564-17.6196899,23.6920166-27.5663452,32.6711426-9.9460449,8.9838867-20.2747192,16.6230469-30.9758911,22.9279785-10.7059326,6.3050537-21.6474609,11.9423828-32.8234863,16.90979l.0004272-.0001221ZM765.9399362,1028.3276367c2.0820312-3.246582,3.9784546-6.5918579,5.6832275-10.0299683,1.7053833-3.4393311,3.4107666-6.973877,5.1155396-10.6047974-2.6550903,0-5.0220947-.8604126-7.1047363-2.5789185-2.086792-1.7208252-3.3167725-4.3937378-3.6939697-8.0258789-.5688477-5.1577759-1.4697266-9.8371582-2.7002563-14.0429077-1.2341309-4.2009888-3.1744995-7.8319092-5.8254395-10.8903809-3.0328979,5.7313843-6.3008423,11.276001-9.8044434,16.6218262-3.5077515,5.3517456-7.1535645,10.5107422-10.940979,15.4769287,7.9568481,2.486084,14.4933472,5.732605,19.6082764,9.7443237,5.1155396,4.0117188,8.3347168,8.7910767,9.6628418,14.3296509l-.000061.0001221ZM788.6745553,975.307312c2.8419189-9.5515747,5.1155396-19.6766968,6.8203125-30.380249h-25.0082397c-2.2736206,5.732605-4.8311157,11.46521-7.6730347,17.1965942,11.9358521,1.7196655,20.5549927,6.1170044,25.8609619,13.1836548ZM804.0206247,1158.1566162c-3.7921753,0-7.0601196-1.0031738-9.8044434-3.0096436-2.7484741-2.0064697-4.1206665-5.1137695-4.1206665-9.3146973,0-10.8903809-.8526611-20.2491455-2.5574951-28.0858154-1.7053833-7.8319092-5.0220947-14.8045654-9.9466553-20.9215088v-.5736084c0-2.293335,1.2299194-3.6273193,3.6945801-4.0117188,13.258667,3.6309814,24.1555786,8.982666,32.6812744,16.0493164,8.5256958,7.0701904,12.7885742,16.1481934,12.7885742,27.2265625,0,7.6391602-2.5134277,13.326416-7.5313721,17.0526123-5.0220947,3.7249756-10.0882568,5.588623-15.2037964,5.588623v-.0001221ZM867.1101022,1157.2962646c-3.223938,0-6.1586304-.9580078-8.8101196-2.8657227-2.6550903-1.9124756-4.1694336-4.7781982-4.5466919-8.5982666-.9502563-10.1240234-2.9395142-19.5827637-5.9676514-28.3725586-3.0328979-8.786377-7.3891602-16.1434326-13.072998-22.067627v-.5736084c0-2.4813232,1.137146-3.9141846,3.4101562-4.2998047,14.9645996,4.3985596,27.1843262,10.0311279,36.6602783,16.90979,9.4712524,6.8786621,14.2095337,16.2421875,14.2095337,28.0870361,0,7.0666504-2.4158325,12.4672852-7.2469482,16.1921387-4.8311157,3.7260742-9.7109985,5.588623-14.6355591,5.588623ZM921.1056467,953.2385864c-2.4646606,0-4.7871094-.6664429-6.9625244-2.0064697-2.1802368-1.3328857-3.6499634-3.5321655-4.4050903-6.5906372-1.3275146-6.3050537-3.3661499-12.1804199-6.1098633-17.6262207-2.7490845-5.4445801-6.7763062-9.6003418-12.078064-12.4660645-.382019-.7616577-.5682373-1.4328613-.5682373-2.0064697,0-2.1004639.9454956-3.4393311,2.8419189-4.0129395,12.5041504,0,22.9214478,2.2480469,31.260376,6.7358398,8.3347168,4.491333,12.5041504,11.2260132,12.5041504,20.2051392,0,5.543396-1.8029785,9.887146-5.3994141,13.0396729-3.6011963,3.1525269-7.2957764,4.7281494-11.0831299,4.7281494h-.0001221ZM939.2936349,1160.1630859c-2.6556396,0-5.1643066-.8151855-7.5313721-2.4360352-2.3712158-1.6256104-4.0272217-4.0617676-4.9733887-7.3082275-3.0323486-11.8448486-7.4862061-22.6412354-13.3562012-32.385498-5.8748169-9.7443848-13.2639771-17.8630371-22.1669312-24.3608398,0-.3808594-.0487671-.6188965-.1416016-.7164307-.0982056-.0952148-.1422119-.2380371-.1422119-.4307861,0-2.0992432,1.0389404-3.4393311,3.1257324-4.0117188,12.1227417,2.486084,22.9702759,5.7801514,32.5396118,9.887207,9.5646973,4.1116943,17.286499,9.126709,23.1612549,15.0461426,5.8699951,5.925415,9.1867676,13.1837158,9.9460449,21.7819824.755127,7.6391602-1.1853027,13.7072754-5.8254395,18.1986084-4.6448975,4.487793-9.5206299,6.7358398-14.6356201,6.7358398l.0001221-.0002441Z" fill="#3a5b19"/>
  <path d="M1110.2114816,1142.5380859c-2.0196533-1.5075684-2.4412842-3.395874-1.2618408-5.6590576,21.7034912-8.2994385,43.2601318-25.9217529,56.7095947-41.8166504,13.4050293-15.8422852,20.9272461-37.5924072,20.9272461-63.6256104,0-17.9207153-3.4072266-32.9190674-10.2208252-44.9938965-6.8145752-12.0701294-16.026123-21.1262817-27.6356201-27.1660156-11.6083984-6.0350952-24.8190918-8.8657837-39.6223145-8.4897461,7.4022217,8.3040771,11.1043701,19.2426758,11.1043701,32.8262329,0,2.0775146-.0866699,4.2442627-.2515869,6.508606-.170166,2.2643433-.4227295,4.625-.7578125,7.0750122-2.5238037,18.8666382-6.2692871,35.2797241-11.2301025,49.2369995-4.9650879,13.9643555-10.5600586,25.942749-16.7828369,35.9389648-6.2269287,10.0008545-12.7054443,18.5834961-19.4333496,25.7512207-6.0567627,6.6062012-12.2827148,9.904541-18.6745605,9.904541-5.0474854,0-10.6868896-2.166748-16.9095459-6.508667-4.3764648-3.2055664-8.6239014-8.1090088-12.7445068-14.71521-4.1248779-6.6014404-7.4449463-14.3837891-9.96875-23.3459473-2.5238037-8.9573975-3.7856445-18.4377441-3.7856445-28.4398193,0-12.8269043,2.6500244-25.4680786,7.949585-37.9189453s12.4925537-23.8135986,21.5782471-34.0988159c9.0847168-10.2805176,19.5147705-18.6281128,31.2944336-25.0438843,11.7744141-6.4110718,24.2271729-10.0889893,37.3500977-11.0360718,1.3453369-.1856689,2.7330322-.2819824,4.1650391-.2819824h4.1639404c14.1322021,0,27.2127686,2.4041748,39.2440186,7.2148438,12.0269775,4.8106689,22.5003662,11.5578003,31.420166,20.2332153,8.9155273,8.6801147,15.855957,18.8677979,20.8210449,30.5619507,4.9598389,11.6987915,7.444458,24.5256958,7.444458,38.4852905,0,19.2426758-3.8723145,36.1774902-11.6094971,50.795166-7.7403564,14.6212158-18.7188721,26.6971436-32.9345703,36.2209473-14.2188721,9.5284424-40.8342285,18.6153564-60.348999,22.3873291h.0001221ZM1063.4286447,1077.2789307c4.878418-5.0926514,9.9259033-11.7880859,15.1425781-20.0910645,5.213501-8.2994385,10.0084229-18.5799561,14.3847656-30.8450928,4.373291-12.260498,7.6547852-26.6925049,9.8424072-43.2959595.3360596-3.2055664.6309814-6.2254028.8835449-9.0549316s.3782959-5.3770142.3782959-7.6401978c0-6.2254028-.8433838-11.2217407-2.5238037-14.9983521-9.4239502,1.3219604-18.2961426,4.8599854-26.6252441,10.6118774-8.3280029,5.7565918-15.6466064,13.0654297-21.9560547,21.9311523-6.3094482,8.8692627-11.2301025,18.5834351-14.7631836,29.1471558-3.5340576,10.5672607-5.3000488,21.3201294-5.3000488,32.2598267,0,13.7716064,2.0185547,23.3929443,6.0567627,28.8640137,4.038208,5.4733887,8.411499,8.2054443,13.1229248,8.2054443,4.2041016,0,7.9897461-1.697998,11.3569336-5.0938721h.0001221Z" fill="#3a5b19"/>
  <path d="M1310.057673,1164.5247803c-4.5949707,0-6.8918457-2.248291-6.8918457-6.7423096,0-.7827148.09375-3.9572754.2862549-9.5273438.1888428-5.5688477.4317627-12.6507568.7178955-21.2518311.2873535-8.5974121.5255127-17.977417.7178955-28.1413574.1888428-10.1602783.3812256-20.2730713.5748291-30.3397217.1888428-10.0640869.2873535-19.2006836.2873535-27.40979v-25.7957153c-4.980957,7.819519-10.2445068,15.0962524-15.7943115,21.8396606-5.5545654,6.7410889-11.1055908,12.9477539-16.6552734,18.6140137h-.5748291c-2.296875,0-3.638916-1.2683105-4.0201416-3.8111572,5.7434082-8.5974121,11.2930908-19.2006836,16.6552734-31.8052368,5.3572998-12.6057129,10.1939697-25.9430542,14.5015869-40.0131226,4.3074951-14.0712891,7.8477783-27.7481689,10.6257324-41.0404663,2.7730713-13.2874146,4.4506836-24.7197266,5.0255127-34.296936,0-.7790527.0444336-1.5118408.1430664-2.1983643.0949707-.6828613.1442871-1.4156494.1442871-2.1983643,0-.9761963.2862549-1.5629272.861084-1.7601318.1888428-.1923218.7624512-.2921143,1.7232666-.2921143,3.4453125.586731,7.7528076,1.6116333,12.9226074,3.0772095,5.1685791,1.4655762,10.3828125,3.0333862,15.6500244,4.6912231,5.2635498,1.6627197,9.5217285,3.0772095,12.7783203,4.2506104.9560547.1972046,1.5308838.6865234,1.7232666,1.4655762.1888428.7827148.2873535,1.5653687.2873535,2.3444214,0,1.1734009-.2873535,2.3005981-.861084,3.3717651-.5748291,1.0760498-1.435791,1.5166626-2.5854492,1.319458-2.4892578,0-4.2618408.4382324-5.3116455,1.3182983-1.0546875.8800659-2.0599365,2.6889038-3.0159912,5.4227905-1.9156494,6.0594482-4.069458,12.0701294-6.4613037,18.0285645-2.3955078,5.9632568-4.9304199,11.7767944-7.6097412,17.4418335v193.4717407c0,1.9512939-1.2915039,3.7102051-3.8758545,5.2767334-2.5854492,1.5617676-5.8876953,2.7338867-9.9078369,3.5178223-4.0201416.777832-8.0402832,1.1722412-12.0603027,1.1722412ZM1342.2197824,1163.645874c-1.342041-.7839355-2.0106201-1.9560547-2.0106201-3.5178223,0-.3944092.0456543-.7839355.1442871-1.1734619.09375-.3931885.2369385-.7827148.430542-1.1722412,14.1647949-4.3005371,26.6075439-9.7744141,37.3306885-16.4156494,10.7194824-6.6412354,19.4295654-15.8289795,26.1325684-27.5546875-4.7873535-5.4691162-9.144165-11.5795898-13.0656738-18.3206787-3.9262695-6.7435303-7.2285156-14.2174072-9.9078369-22.4263916-5.7434082,2.1533203-12.0603027,3.225708-18.9521484,3.225708-4.980957,0-7.4666748-2.3455811-7.4666748-7.0356445,0-1.1734619.09375-4.4428711.2873535-9.8206787.1876221-5.3729248.3812256-11.8217773.5736084-19.3468018.1888428-7.5213623.3812256-15.3395996.5748291-23.451355.1888428-8.1068115.2873535-15.6829224.2873535-22.7185669,0-11.5285034-.1936035-20.1757202-.5748291-25.9418335-.3859863-5.7623901-1.0546875-9.6234741-2.0093994-11.5795898-.3859863-1.1721802-.2873535-2.0522461.2862549-2.6377563.5748291-.586731,1.435791-.7790527,2.5854492-.586731,2.296875.586731,5.7421875,1.7576904,10.3371582,3.5178223,4.5949707,1.7576904,9.234375,3.6638794,13.9279785,5.7161865,4.6887207,2.0522461,8.4707031,3.861084,11.3424072,5.4227905h28.1420898v-33.4180908h-33.0231934c-6.3182373,0-11.8234863.1010132-16.512207.293335-4.6936035.1972046-9.5253906.586731-14.5015869,1.1721802l-3.4465332-12.6044922c9.1898193,1.1721802,20.6766357,1.954895,34.4602051,2.3444214h95.6254883c3.2529297,0,5.4559326-1.071167,6.6043701-3.2232666.9560547-1.1734009,2.1538086-2.8312988,3.5895996-4.9833984,1.435791-2.1496582,2.8717041-4.296875,4.3074951-6.4489136,1.435791-2.1496582,2.4411621-3.710144,3.0159912-4.6912231,1.1484375-1.5617065,2.390625-2.3444214,3.732666-2.3444214.5748291,0,1.1484375.0997925,1.7232666.2921143.5736084.1972046,1.1484375.4905396,1.7232666.8800659,2.4857178,1.3693848,5.4559326,3.4216309,8.9012451,6.1555786,3.4465332,2.7387695,6.7486572,5.5700684,9.9078369,8.5012207s5.4066162,5.3777466,6.7475586,7.3277588c.9560547.9810791,1.435791,2.1533203,1.435791,3.5178223,0,2.5427856-1.0534668,3.8111572-3.1578369,3.8111572h-78.3966064v33.4180908h25.8452148c2.296875,0,3.9215088-.8800659,4.8811035-2.6377563l5.4571533-9.3812866c.954834-1.7589111,2.1044922-2.6377563,3.4453125-2.6377563.3812256,0,.7624512.0499268,1.1484375.1460571.3812256.1010132.8621826.248291,1.435791.4406128,2.6793213.9786377,5.8876953,2.2981567,9.6203613,3.9560547,3.732666,1.6627197,7.4666748,3.4228516,11.1993408,5.2779541,3.732666,1.8587036,6.7486572,3.5665283,9.0455322,5.1294556,2.2980957,1.1721802,3.4465332,3.0321655,3.4465332,5.5700684,0,2.541626-1.435791,4.3966675-4.3074951,5.5688477-1.5344238.5855103-2.6828613,1.2732544-3.4465332,2.0522461-2.6828613,1.9561157-4.0201416,5.5688477-4.0201416,10.8455811,0,6.2578125.09375,13.2423706.2873535,20.9596558.1888428,7.722168.4749756,15.1972656.861084,22.4251709.3812256,7.2315674.6685791,13.3372803.8621826,18.3206787.1876221,4.9833984.2862549,7.7684326.2862549,8.3551025,0,2.1520996-1.435791,4.0072021-4.3062744,5.5700684-2.8717041,1.5654297-6.416748,2.7850342-10.6257324,3.6639404-4.2137451.8789062-8.5212402,1.319458-12.9226074,1.319458-5.1685791,0-7.7528076-2.3455811-7.7528076-7.0356445v-7.3289795h-31.8759766c-.9595947,9.7744141-2.6828613,18.7613525-5.1685791,26.9691162-2.4904785,8.2078857-5.5545654,15.7327881-9.1898193,22.5712891,9.9522705,3.1282959,20.4337158,5.5238037,31.4454346,7.1817627,11.0057373,1.6627197,22.0620117,2.7850342,33.1674805,3.3717041,11.100708.5866699,21.536499.8789062,31.2999268.8789062-5.5545654,4.4976807-10.3371582,10.6033936-14.3571777,18.3218994-4.0201416,7.7172852-6.5106201,14.8990479-7.4666748,21.545166-15.1256104-.9798584-30.6818848-3.6639404-46.664917-8.0605469-15.9866943-4.3978271-30.5820312-11.6757812-43.7919922-21.8397217-9.3823242,8.9916992-20.6309814,16.2696533-33.7423096,21.8397217-13.1149902,5.5688477-28.1914062,9.7183838-45.2279053,12.4584961l.0002441.0001221ZM1412.0001779,1096.8096924c1.9121094-5.4691162,3.4909668-11.3824463,4.7392578-17.7352295,1.2421875-6.3479004,2.1538086-13.2374268,2.727417-20.6662598h-30.4389648v7.6210938c0,1.3706055-.7672119,2.638916-2.2980957,3.8123779,2.6793213,5.6699219,6.2196045,10.7481689,10.6257324,15.2423096,4.4013672,4.4976807,9.2836914,8.4050293,14.6446533,11.725708ZM1420.6151681,976.6231079h-31.5874023v31.0724487h31.5874023v-31.0724487ZM1420.6151681,1016.7822876h-31.5874023v32.8313599h31.3011475c.1876221-2.7338867.2862549-5.4678955.2862549-8.206665v-24.6247559.000061ZM1452.7786203,1049.6136475h31.0137939v-32.8313599h-30.4400635v16.1235962c0,2.9311523-.0493164,5.7661133-.1430664,8.5012207-.0986328,2.7387695-.2429199,5.4726562-.430542,8.206665l-.0001221-.0001221ZM1483.7922922,976.6231079h-30.4400635v31.0724487h30.4400635v-31.0724487Z" fill="#3a5b19"/>
  <path d="M1633.2040353,1156.8330078c-1.7180176-1.0919189-2.244751-2.5106201-1.5822754-4.255127.1933594-.5090332.5960693-.9207764,1.098877-1.1296387,16.0006104-6.6477051,29.067749-15.9464111,39.1958008-27.90271,10.2720947-12.1248779,17.9058838-26.2462158,22.9025879-42.355835,4.9919434-16.1096191,7.4890137-33.3299561,7.4890137-51.6608887,0-23.3317261-2.9797363-39.7182007-8.9294434-49.1616211-5.9558105-9.4434204-13.1577148-13.5146484-21.605835-12.2206421-4.4200439.5559082-8.6917725,3.1508789-12.8199463,7.7768555-4.1317139,4.6306152-7.7773438,10.2772827-10.9464111,16.9423218-3.1690674,6.6661987-5.6662598,13.6103516-7.4902344,20.8313599-1.826416,7.2209473-2.7359619,13.7960815-2.7359619,19.7206421v4.442627c0,4.0758057.0941162,7.9163818.2883301,11.5263672.1882324,3.6121826.8637695,7.2705078,2.0158691,10.9715576,1.3414307,3.7056885,2.0169678,7.1309814,2.0169678,10.2772217,0,7.0386963-3.2680664,11.6646729-9.7944336,13.887207-1.7287598.5548096-3.4573975.8326416-5.1861572.8326416-6.53125,0-11.7160645-5.4587402-15.5559082-16.3875732-2.4971924-7.0341797-4.2258301-14.2077637-5.1849365-21.5245361-.9626465-7.3132324-1.4404297-14.5814209-1.4404297-21.8035889,0-11.1088257.8143311-21.8947144,2.4488525-32.357666,1.6297607-10.458374,3.2137451-20.1358643,4.7530518-29.0245361,1.5344238-8.8875122,2.3040771-16.5686646,2.3040771-23.0526733v-1.6665649c0-4.6259766-.1929932-8.7018433-.5754395-12.2206421-.387207-3.5153198-1.8276367-6.6650391-4.321167-9.4434204v-.5547485c0-2.0545044.9844971-3.3145752,2.9534912-3.7885132.3236084-.0778809.6756592-.0518188.9949951.0418091,8.2166748,2.4071655,14.7271729,5.9707642,19.529541,10.6897583,4.8966064,4.8174438,7.345459,11.8515625,7.345459,21.1081543,0,5.0007935-1.2015381,10.5552368-3.6009521,16.6655273-2.4030762,6.1102905-4.8519287,12.914917-7.345459,20.4138184-2.4984131,7.4989014-3.7457275,15.7890015-3.7457275,24.8587646,0,1.484314.0458984,3.0125122.1447754,4.583313.0598145,1.0019531.1401367,2.0212402.2403564,3.0592041.0982666,1.0180054.9455566,1.8009033,1.9682617,1.8009033h0c.96875,0,1.7822266-.7025146,1.9399414-1.6582642,1.4075928-8.5284424,3.9638672-17.1421509,7.661499-25.8392944,3.9351807-9.2565918,8.9306641-17.3114014,14.9804688-24.163269,6.0498047-6.8484497,12.7198486-11.2011108,20.0206299-13.0545044,4.22229-.9238281,7.8726807-1.3886108,10.9476318-1.3886108,8.8305664,0,16.9963379,2.7345581,24.4853516,8.1932373,7.4902344,5.4644775,13.5401611,13.8444824,18.1484375,25.1367188,4.6094971,11.296814,6.9147949,25.7387695,6.9147949,43.3292236,0,34.6262207-8.3552246,62.8653564-25.0632324,84.7116699-16.5759277,21.6782227-40.9979248,36.7020264-73.2613525,45.0737305-.5432129.1409912-1.1307373.0410156-1.6043701-.2600098l.0006104.0002441Z" fill="#3a5b19"/>
  <g>
    <path d="M470.5936227,1336.3312988c-6.6843872,0-12.8312988-1.3134766-18.4412842-3.9393311s-10.1660767-6.9622803-13.666626-13.010498l8.9519043-5.4901123c2.6258545,3.819458,5.807373,6.7636719,9.5487061,8.8326416,3.739624,2.0700684,8.3944092,3.1027832,13.9650269,3.1027832,5.5689087,0,9.9070435-1.1126709,13.010437-3.3413086,3.1033936-2.2275391,4.6553955-5.491333,4.6553955-9.7878418,0-2.5458984-.5580444-4.7541504-1.6712646-6.6245117-1.1154785-1.8692627-3.3419189-3.5604248-6.6843872-5.0725098-3.3419189-1.5108643-8.3961182-2.9431152-15.1586914-4.2976074-15.3583984-3.3425293-23.0367432-11.178833-23.0367432-23.5137939,0-4.7746582,1.1525879-8.9525146,3.461731-12.5334473,2.3068848-3.5809326,5.529541-6.3859863,9.6679688-8.414917,4.1367188-2.0290527,8.9519043-3.043457,14.442627-3.043457,6.6843872,0,12.4324341,1.3933105,17.2476196,4.1778564,4.8140259,2.7867432,8.8120728,6.2067871,11.9959717,10.2647705l-8.3550415,6.8035889c-2.5476685-2.7844238-5.4519043-5.251709-8.7133789-7.4005127-3.2637329-2.1477051-7.361084-3.2226562-12.2943726-3.2226562-4.6160278,0-8.4560547,1.0955811-11.5183716,3.2830811-3.0640259,2.1887207-4.595459,5.3908691-4.595459,9.6075439,0,2.2287598.4963989,4.2382812,1.4920654,6.0288086.9939575,1.7893066,2.8443604,3.3619385,5.5506592,4.7141113,2.7039795,1.3546143,6.6427612,2.5870361,11.8162231,3.699707,9.8659668,2.071167,16.9680176,5.1740723,21.3061523,9.310791,4.3358765,4.1378174,6.505249,9.5093994,6.505249,16.1132812,0,5.0941162-1.2536011,9.4112549-3.7601318,12.9511719-2.5065918,3.5410156-5.9677124,6.2272949-10.3840332,8.0566406s-9.5304565,2.7456055-15.3378906,2.7456055l-.000061.0001221Z" fill="#3a5b19"/>
    <path d="M532.1892648,1336.3312988v-87.1337891h11.3271484v36.0986328h43.6912842v-36.0986328h11.4515381v87.1337891h-11.4515381v-40.4542236h-43.6912842v40.4542236h-11.3271484Z" fill="#3a5b19"/>
    <path d="M633.8861032,1336.3312988v-87.1337891h11.3271484v87.1337891h-11.3271484Z" fill="#3a5b19"/>
    <path d="M676.0826364,1336.3312988v-10.7047119l44.9360962-65.7231445h-43.3181763v-10.7059326h57.383728v10.7059326l-44.9360962,65.7231445h45.6828613v10.7047119h-59.7484131Z" fill="#3a5b19"/>
    <path d="M766.7009836,1336.3312988v-87.1337891h56.3876343v10.7059326h-45.0604858v26.5125732h41.0772705v10.8297119h-41.0772705v28.3809814h46.5540161v10.7047119h-57.8811646v-.0001221Z" fill="#3a5b19"/>
    <path d="M855.4515329,1336.3312988v-87.1337891h11.3271484l44.6873779,67.0928955v-67.0928955h11.4508667v87.1337891h-10.9534912l-45.1848145-68.3377686v68.3377686h-11.3271484.000061Z" fill="#3a5b19"/>
    <path d="M1009.1796213,1336.3312988v-87.1337891h11.3271484l44.6873779,67.0928955v-67.0928955h11.4509277v87.1337891h-10.9534912l-45.1848145-68.3377686v68.3377686h-11.3271484Z" fill="#3a5b19"/>
    <path d="M1291.7395578,1336.3312988v-76.4278564h-27.3848877v-10.7059326h66.0968018v10.7059326h-27.2598877v76.4278564h-11.4521484.0001221Z" fill="#3a5b19"/>
    <path d="M1340.0352121,1336.3312988l33.982666-87.1337891h10.0822754l33.982666,87.1337891h-12.8218994l-8.3400879-22.2818604h-35.9736328l-8.3400879,22.2818604h-12.5720215.0001221ZM1364.8066965,1303.3447266h28.2559814l-13.9417725-37.8408203-14.314209,37.8408203Z" fill="#3a5b19"/>
    <path d="M1455.6773019,1336.3312988v-37.0935059l-29.1282959-50.0402832h13.1943359l21.7843018,37.5921631,21.5344238-37.5921631h13.3181152l-29.1270752,50.0402832v37.0935059h-11.5759277.0001221Z" fill="#3a5b19"/>
    <path d="M1626.8341623,1336.5800781v-87.1337891h27.2219238c5.9437256,0,11.192627.7727051,15.7504883,2.3179932,4.5562744,1.5452881,8.1427002,4.1013184,10.7580566,7.6673584,2.6149902,3.56604,3.9227295,8.3619385,3.9227295,14.3834229,0,5.7857666-1.3076172,10.6002197-3.9227295,14.4431152-2.6153564,3.8448486-6.2017822,6.697876-10.7580566,8.5587158-4.5578613,1.8630371-9.8067627,2.7937012-15.7504883,2.7937012h-16.2855225v36.9693604h-10.9364014v.0001221ZM1637.7705636,1290.8139648h14.6210938c6.8149414,0,12.0454102-1.4060059,15.6911621-4.2197266,3.644165-2.8122559,5.4683838-7.072998,5.4683838-12.7790527,0-5.7056885-1.8240967-9.706665-5.4683838-12.0061035-3.645752-2.2976074-8.8762207-3.4470215-15.6911621-3.4470215h-14.6210938v32.4520264-.0001221ZM1674.6209054,1336.5800781l-22.8234863-39.8223877,8.6777344-5.824707,26.5085449,45.6470947h-12.362793Z" fill="#3a5b19"/>
    <path d="M1721.805842,1336.3312988v-87.1337891h11.3271484v87.1337891h-11.3271484Z" fill="#3a5b19"/>
    <path d="M1147.0743967,1336.3312988c-24.0234375,0-43.5668945-19.543457-43.5668945-43.5668945s19.543457-43.5668945,43.5668945-43.5668945,43.5668945,19.543457,43.5668945,43.5668945-19.543457,43.5668945-43.5668945,43.5668945ZM1147.0743967,1260.2426758c-17.9327393,0-32.5218506,14.5889893-32.5218506,32.5217285s14.5889893,32.5217285,32.5217285,32.5217285,32.5217285-14.5889893,32.5217285-32.5217285-14.5889893-32.5217285-32.5217285-32.5217285h.0001221Z" fill="#3a5b19"/>
    <path d="M1552.8809152,1336.3312988c-24.0234375,0-43.5668945-19.543457-43.5668945-43.5668945s19.543457-43.5668945,43.5668945-43.5668945,43.5668945,19.543457,43.5668945,43.5668945-19.543457,43.5668945-43.5668945,43.5668945ZM1552.8809152,1260.2426758c-17.9327393,0-32.5217285,14.5889893-32.5217285,32.5217285s14.5889893,32.5217285,32.5217285,32.5217285,32.5217285-14.5889893,32.5217285-32.5217285-14.5889893-32.5217285-32.5217285-32.5217285Z" fill="#3a5b19"/>
  </g>
</svg>