<svg xmlns="http://www.w3.org/2000/svg" width="16" height="16" viewBox="0 0 16 16" fill="none">
  <path d="M8 0L9.5 2.5L12.5 2L12 5L15 6L13.5 8.5L15 11L12 12L12.5 15L9.5 14.5L8 17L6.5 14.5L3.5 15L4 12L1 11L2.5 8.5L1 6L4 5L3.5 2L6.5 2.5L8 0Z" fill="currentColor"/>
  <path d="M6 6.5C6 5.67157 6.67157 5 7.5 5C8.32843 5 9 5.67157 9 6.5C9 7.32843 8.32843 8 7.5 8C6.67157 8 6 7.32843 6 6.5Z" fill="white"/>
  <path d="M10 9.5C10 8.67157 9.32843 8 8.5 8C7.67157 8 7 8.67157 7 9.5C7 10.3284 7.67157 11 8.5 11C9.32843 11 10 10.3284 10 9.5Z" fill="white"/>
  <line x1="5.5" y1="10.5" x2="10.5" y2="5.5" stroke="white" stroke-width="1" stroke-linecap="round"/>
</svg>

